<svg xmlns="http://www.w3.org/2000/svg" version="1.1" xmlns:xlink="http://www.w3.org/1999/xlink" xmlns:svgjs="http://svgjs.dev/svgjs" width="128" height="128" viewBox="0 0 128 128"><g transform="matrix(0.8046875,0,0,0.8046875,12.333870967741937,14.3642290447968)"><svg viewBox="0 0 155 150" data-background-color="#ffffff" preserveAspectRatio="xMidYMid meet" height="123" width="128" xmlns="http://www.w3.org/2000/svg" xmlns:xlink="http://www.w3.org/1999/xlink"><g id="tight-bounds" transform="matrix(1,0,0,1,0.25,0.22352216748768683)"><svg viewBox="0 0 154.5 149.55295566502463" height="149.55295566502463" width="154.5"><g><svg viewBox="0 0 154.5 149.55295566502463" height="149.55295566502463" width="154.5"><g><svg viewBox="0 0 154.5 149.55295566502463" height="149.55295566502463" width="154.5"><g id="textblocktransform"><svg viewBox="0 0 154.5 149.55295566502463" height="149.55295566502463" width="154.5" id="textblock"><g><svg viewBox="0 0 154.5 149.55295566502463" height="149.55295566502463" width="154.5"><g transform="matrix(1,0,0,1,0,0)"><svg width="154.5" viewBox="2.17 -38.38 39.65 38.38" height="149.55295566502463" data-palette-color="#000000"><path d="M2.17-33.2L2.17-33.2Q2.17-33.52 2.37-33.76 2.56-34.01 2.88-34.4L2.88-34.4Q3.56-35.18 4.47-36.05 5.37-36.91 6.3-37.72L6.3-37.72Q6.88-38.18 7.18-38.18L7.18-38.18Q7.47-38.18 8.08-37.72L8.08-37.72Q10.06-36.01 11.45-34.4L11.45-34.4Q11.77-34.03 11.98-33.78 12.18-33.52 12.18-33.2L12.18-33.2Q12.18-32.89 11.98-32.64 11.77-32.4 11.43-31.98L11.43-31.98Q10.77-31.23 9.89-30.36 9.01-29.49 8.08-28.71L8.08-28.71Q7.74-28.42 7.54-28.33 7.35-28.25 7.18-28.25L7.18-28.25Q7.01-28.25 6.82-28.33 6.64-28.42 6.25-28.71L6.25-28.71Q5.27-29.49 4.42-30.36 3.56-31.23 2.88-32.03L2.88-32.03Q2.56-32.42 2.37-32.65 2.17-32.89 2.17-33.2ZM11.01-23.71L11.01-1.29Q11.01-0.56 10.71-0.28 10.4 0 9.67 0L9.67 0 4.64 0Q3.91 0 3.6-0.28 3.3-0.56 3.3-1.29L3.3-1.29 3.3-23.71Q3.3-24.44 3.6-24.72 3.91-25 4.64-25L4.64-25 9.67-25Q10.4-25 10.71-24.72 11.01-24.44 11.01-23.71L11.01-23.71ZM25.36-16.46L25.36-1.29Q25.36-0.56 25.06-0.28 24.75 0 24.02 0L24.02 0 18.99 0Q18.26 0 17.95-0.28 17.65-0.56 17.65-1.29L17.65-1.29 17.65-34.33Q17.65-34.91 17.89-35.23L17.89-35.23Q18.92-36.57 20.9-38.13L20.9-38.13Q21.24-38.38 21.51-38.38L21.51-38.38Q21.82-38.38 22.12-38.13L22.12-38.13Q23.17-37.33 23.89-36.62 24.61-35.91 25.12-35.23L25.12-35.23Q25.36-34.91 25.36-34.33L25.36-34.33 25.36-22.49 25.46-22.49Q26-23.19 26.85-23.91 27.71-24.63 29.14-25.12 30.56-25.61 32.79-25.61L32.79-25.61Q35.03-25.61 37.11-24.68 39.18-23.75 40.5-21.56 41.82-19.36 41.82-15.55L41.82-15.55 41.82-1.29Q41.82-0.56 41.51-0.28 41.21 0 40.48 0L40.48 0 35.45 0Q34.71 0 34.41-0.28 34.1-0.56 34.1-1.29L34.1-1.29 34.1-14.21Q34.1-16.92 32.98-18.15 31.86-19.38 29.93-19.38L29.93-19.38Q28.02-19.38 26.98-18.55 25.93-17.72 25.36-16.46L25.36-16.46Z" opacity="1" transform="matrix(1,0,0,1,0,0)" fill="#000000" class="wordmark-text-0" data-fill-palette-color="primary" id="text-0"></path></svg></g></svg></g></svg></g></svg></g></svg></g><defs></defs></svg><rect width="154.5" height="149.55295566502463" fill="none" stroke="none" visibility="hidden"></rect></g></svg></g></svg>