<svg xmlns="http://www.w3.org/2000/svg" version="1.1" xmlns:xlink="http://www.w3.org/1999/xlink" xmlns:svgjs="http://svgjs.dev/svgjs" width="2000" height="404" viewBox="0 0 2000 404"><g transform="matrix(1,0,0,1,-1.2121212121212466,-0.38192371154039506)"><svg viewBox="0 0 396 80" data-background-color="#ffffff" preserveAspectRatio="xMidYMid meet" height="404" width="2000" xmlns="http://www.w3.org/2000/svg" xmlns:xlink="http://www.w3.org/1999/xlink"><g id="tight-bounds" transform="matrix(1,0,0,1,0.2400000000000091,0.07562845773077242)"><svg viewBox="0 0 395.52 79.84874308453848" height="79.84874308453848" width="395.52"><g><svg viewBox="0 0 395.52 79.84874308453848" height="79.84874308453848" width="395.52"><g><svg viewBox="0 0 395.52 79.84874308453848" height="79.84874308453848" width="395.52"><g id="textblocktransform"><svg viewBox="0 0 395.52 79.84874308453848" height="79.84874308453848" width="395.52" id="textblock"><g><svg viewBox="0 0 395.52 79.84874308453848" height="79.84874308453848" width="395.52"><g transform="matrix(1,0,0,1,0,0)"><svg width="395.52" viewBox="2.17 -38.38 251.52 50.78" height="79.84874308453848" data-palette-color="#000000"><path d="M2.17-33.2L2.17-33.2Q2.17-33.52 2.37-33.76 2.56-34.01 2.88-34.4L2.88-34.4Q3.56-35.18 4.47-36.05 5.37-36.91 6.3-37.72L6.3-37.72Q6.88-38.18 7.18-38.18L7.18-38.18Q7.47-38.18 8.08-37.72L8.08-37.72Q10.06-36.01 11.45-34.4L11.45-34.4Q11.77-34.03 11.98-33.78 12.18-33.52 12.18-33.2L12.18-33.2Q12.18-32.89 11.98-32.64 11.77-32.4 11.43-31.98L11.43-31.98Q10.77-31.23 9.89-30.36 9.01-29.49 8.08-28.71L8.08-28.71Q7.74-28.42 7.54-28.33 7.35-28.25 7.18-28.25L7.18-28.25Q7.01-28.25 6.82-28.33 6.64-28.42 6.25-28.71L6.25-28.71Q5.27-29.49 4.42-30.36 3.56-31.23 2.88-32.03L2.88-32.03Q2.56-32.42 2.37-32.65 2.17-32.89 2.17-33.2ZM11.01-23.71L11.01-1.29Q11.01-0.56 10.71-0.28 10.4 0 9.67 0L9.67 0 4.64 0Q3.91 0 3.6-0.28 3.3-0.56 3.3-1.29L3.3-1.29 3.3-23.71Q3.3-24.44 3.6-24.72 3.91-25 4.64-25L4.64-25 9.67-25Q10.4-25 10.71-24.72 11.01-24.44 11.01-23.71L11.01-23.71ZM41.82-22.66L41.82-22.66 41.82-2.86Q41.82 4.27 37.75 8.01 33.69 11.74 26.61 11.74L26.61 11.74Q23.68 11.74 21.97 11.32 20.26 10.89 19.38 10.5L19.38 10.5Q18.82 10.23 18.65 9.94L18.65 9.94Q18.41 9.55 18.1 8.79 17.8 8.03 17.53 7.13L17.53 7.13Q17.45 6.79 17.5 6.62L17.5 6.62Q17.6 6.37 17.87 6.1L17.87 6.1Q18.31 5.66 19.13 5.08 19.94 4.49 20.38 4.32L20.38 4.32Q20.85 4.15 21.24 4.37L21.24 4.37Q21.87 4.71 23.06 5.14 24.24 5.57 26.39 5.57L26.39 5.57Q29.81 5.57 31.96 3.81 34.1 2.05 34.1-1.61L34.1-1.61 34.1-2.49 34.01-2.49Q33.47-1.81 32.61-1.1 31.76-0.39 30.41 0.1 29.05 0.59 26.93 0.59L26.93 0.59Q23.24 0.59 20.88-1.01 18.53-2.61 17.42-5.42 16.31-8.23 16.31-11.82L16.31-11.82Q16.31-15.75 17.6-18.87 18.89-22 21.95-23.82 25-25.63 30.3-25.63L30.3-25.63Q33.47-25.63 35.63-25.17 37.79-24.71 39.26-24.02 40.72-23.34 41.82-22.66ZM30.03-19.73L30.03-19.73Q27.19-19.73 25.71-17.82 24.22-15.92 24.22-11.91L24.22-11.91Q24.22-5.64 29.39-5.64L29.39-5.64Q31.42-5.64 32.49-6.47 33.57-7.3 34.1-8.57L34.1-8.57 34.1-18.65Q33.57-19.04 32.59-19.38 31.61-19.73 30.03-19.73ZM72.58-15.55L72.58-15.55 72.58-1.29Q72.58-0.56 72.27-0.28 71.97 0 71.24 0L71.24 0 66.21 0Q65.47 0 65.17-0.28 64.86-0.56 64.86-1.29L64.86-1.29 64.86-14.28Q64.86-16.94 63.74-18.16 62.62-19.38 60.69-19.38L60.69-19.38Q58.76-19.38 57.72-18.55 56.68-17.72 56.12-16.46L56.12-16.46 56.12-1.29Q56.12-0.56 55.82-0.28 55.51 0 54.78 0L54.78 0 49.75 0Q49.02 0 48.71-0.28 48.41-0.56 48.41-1.29L48.41-1.29 48.41-21.75Q48.41-22.34 48.65-22.66L48.65-22.66Q49.16-23.34 49.89-24.05 50.61-24.76 51.66-25.56L51.66-25.56Q51.97-25.81 52.27-25.81L52.27-25.81Q52.53-25.81 52.88-25.56L52.88-25.56Q53.9-24.76 54.63-24.02 55.37-23.29 55.93-22.51L55.93-22.51 56.05-22.51Q56.46-23.05 57.29-23.77 58.12-24.49 59.63-25.05 61.13-25.61 63.47-25.61L63.47-25.61Q65.77-25.61 67.84-24.68 69.92-23.75 71.25-21.56 72.58-19.36 72.58-15.55ZM91.15 0.61L91.15 0.61Q85 0.61 81.41-2.66 77.82-5.93 77.82-12.4L77.82-12.4Q77.82-19.04 81.55-22.33 85.27-25.61 91.5-25.61L91.5-25.61Q97.5-25.61 101.12-22.38 104.73-19.14 104.73-12.84L104.73-12.84Q104.73-6.27 101.12-2.83 97.5 0.61 91.15 0.61ZM91.4-5.3L91.4-5.3Q94.08-5.3 95.45-6.97 96.82-8.64 96.82-12.7L96.82-12.7Q96.82-16.55 95.44-18.13 94.06-19.7 91.35-19.7L91.35-19.7Q88.74-19.7 87.24-18.01 85.73-16.31 85.73-12.5L85.73-12.5Q85.73-8.52 87.16-6.91 88.59-5.3 91.4-5.3ZM118.69 0.61L118.69 0.61Q110 0.61 110-9.91L110-9.91 109.98-22.31Q109.98-22.9 110.22-23.22L110.22-23.22Q111.24-24.56 113.22-26.12L113.22-26.12Q113.56-26.37 113.83-26.37L113.83-26.37Q114.15-26.37 114.44-26.12L114.44-26.12Q115.49-25.32 116.21-24.61 116.93-23.9 117.45-23.22L117.45-23.22Q117.69-22.9 117.69-22.31L117.69-22.31 117.69-10.6Q117.69-5.3 121.89-5.3L121.89-5.3Q123.96-5.3 125.21-6.75 126.45-8.2 126.45-10.69L126.45-10.69 126.45-22.31Q126.45-22.9 126.7-23.22L126.7-23.22Q127.72-24.56 129.7-26.12L129.7-26.12Q130.04-26.37 130.31-26.37L130.31-26.37Q130.63-26.37 130.92-26.12L130.92-26.12Q131.97-25.32 132.69-24.61 133.41-23.9 133.93-23.22L133.93-23.22Q134.17-22.9 134.17-22.31L134.17-22.31 134.17-1.12Q134.17-0.66 133.85-0.33 133.53 0 133.05 0L133.05 0 129.38 0Q128.99 0 128.69-0.11 128.38-0.22 128.12-0.54L128.12-0.54 126.6-2.49 126.43-2.49Q126.04-1.93 125.22-1.2 124.4-0.46 122.85 0.07 121.3 0.61 118.69 0.61ZM162.27-16.46L162.27-1.29Q162.27-0.56 161.96-0.28 161.65 0 160.92 0L160.92 0 155.89 0Q155.16 0 154.86-0.28 154.55-0.56 154.55-1.29L154.55-1.29 154.55-34.33Q154.55-34.91 154.79-35.23L154.79-35.23Q155.82-36.57 157.8-38.13L157.8-38.13Q158.14-38.38 158.41-38.38L158.41-38.38Q158.73-38.38 159.02-38.13L159.02-38.13Q160.07-37.33 160.79-36.62 161.51-35.91 162.02-35.23L162.02-35.23Q162.27-34.91 162.27-34.33L162.27-34.33 162.27-22.49 162.36-22.49Q162.9-23.19 163.75-23.91 164.61-24.63 166.04-25.12 167.47-25.61 169.69-25.61L169.69-25.61Q171.93-25.61 174.01-24.68 176.08-23.75 177.4-21.56 178.72-19.36 178.72-15.55L178.72-15.55 178.72-1.29Q178.72-0.56 178.42-0.28 178.11 0 177.38 0L177.38 0 172.35 0Q171.62 0 171.31-0.28 171.01-0.56 171.01-1.29L171.01-1.29 171.01-14.21Q171.01-16.92 169.88-18.15 168.76-19.38 166.83-19.38L166.83-19.38Q164.93-19.38 163.88-18.55 162.83-17.72 162.27-16.46L162.27-16.46ZM197.57 0.61L197.57 0.61Q193.44 0.61 190.39-0.72 187.34-2.05 185.65-4.86 183.97-7.67 183.97-12.11L183.97-12.11Q183.97-18.77 187.38-22.19 190.8-25.61 196.47-25.61L196.47-25.61Q200.15-25.61 202.7-24.29 205.26-22.97 206.59-20.65 207.92-18.33 207.92-15.36L207.92-15.36Q207.92-12.45 206.43-11.3 204.94-10.16 202.08-10.16L202.08-10.16 191.61-10.16Q191.8-7.64 193.45-6.32 195.1-5 197.93-5L197.93-5Q200.18-5 201.53-5.68 202.89-6.35 203.42-6.74L203.42-6.74Q203.89-7.08 204.47-7.06L204.47-7.06Q204.94-7.06 205.81-6.87 206.67-6.69 207.53-6.2L207.53-6.2Q208.14-5.88 208.14-5.32L208.14-5.32Q208.14-5 208.01-4.42L208.01-4.42Q207.94-4.08 207.77-3.43 207.6-2.78 207.33-2.22L207.33-2.22Q207.18-1.95 206.87-1.71L206.87-1.71Q206.38-1.37 205.29-0.81 204.21-0.24 202.33 0.18 200.45 0.61 197.57 0.61ZM191.56-15.16L191.56-15.16 199.52-15.16Q200.76-15.16 200.76-16.31L200.76-16.31Q200.76-18.04 199.68-19.23 198.59-20.41 196.42-20.41L196.42-20.41Q194.05-20.41 192.94-18.9 191.83-17.38 191.56-15.16ZM221.59-1.83L216.48 0.51Q215.97 0.73 215.75 0.73L215.75 0.73Q215.53 0.73 215.29 0.56L215.29 0.56Q214.73 0.17 214.01-1.35 213.29-2.88 213.29-6.05L213.29-6.05 213.29-34.33Q213.29-34.91 213.53-35.23L213.53-35.23Q214.56-36.57 216.53-38.13L216.53-38.13Q216.87-38.38 217.14-38.38L217.14-38.38Q217.46-38.38 217.75-38.13L217.75-38.13Q218.8-37.33 219.52-36.62 220.24-35.91 220.76-35.23L220.76-35.23Q221-34.91 221-34.33L221-34.33 221-7.54Q221-5.93 221.27-4.8 221.54-3.66 221.9-2.98L221.9-2.98Q222.32-2.17 221.59-1.83L221.59-1.83ZM243.24-25.61L243.24-25.61Q246.8-25.61 249.11-24.01 251.42-22.41 252.55-19.62 253.69-16.82 253.69-13.21L253.69-13.21Q253.69-9.3 252.36-6.18 251.03-3.05 248.44-1.22 245.85 0.61 242.02 0.61L242.02 0.61Q240.04 0.61 238.76 0.16 237.48-0.29 236.71-0.92 235.94-1.54 235.5-2.05L235.5-2.05 235.4-2.05 235.4 8.35Q235.4 8.94 235.16 9.25L235.16 9.25Q234.13 10.6 232.16 12.16L232.16 12.16Q231.81 12.4 231.54 12.4L231.54 12.4Q231.25 12.4 230.93 12.16L230.93 12.16Q229.88 11.35 229.16 10.64 228.44 9.94 227.93 9.25L227.93 9.25Q227.69 8.94 227.69 8.35L227.69 8.35 227.69-21.75Q227.69-22.34 227.93-22.66L227.93-22.66Q228.44-23.34 229.16-24.05 229.88-24.76 230.93-25.56L230.93-25.56Q231.25-25.81 231.59-25.81L231.59-25.81Q231.91-25.81 232.25-25.56L232.25-25.56Q233.28-24.76 234.01-24.02 234.74-23.29 235.3-22.51L235.3-22.51 235.43-22.51Q235.84-23.02 236.7-23.75 237.55-24.49 239.13-25.05 240.7-25.61 243.24-25.61ZM240.24-5.62L240.24-5.62Q242.87-5.62 244.33-7.46 245.78-9.3 245.78-12.79L245.78-12.79Q245.78-19.38 240.36-19.38L240.36-19.38Q238.06-19.38 236.96-18.44 235.87-17.5 235.4-16.46L235.4-16.46 235.4-11.16Q235.4-8.79 236.62-7.2 237.84-5.62 240.24-5.62Z" opacity="1" transform="matrix(1,0,0,1,0,0)" fill="#fff" class="wordmark-text-0" data-fill-palette-color="primary" id="text-0"></path></svg></g></svg></g></svg></g></svg></g></svg></g><defs></defs></svg><rect width="395.52" height="79.84874308453848" fill="none" stroke="none" visibility="hidden"></rect></g></svg></g></svg>